<svg width="95" height="95" fill="none" xmlns="http://www.w3.org/2000/svg"><path d="M63.333 7.917H31.667v3.166h31.666V7.917zm15.042 51.458a5.548 5.548 0 00-5.542-5.542h-3.166V31.667H66.5v22.166h-3.958A5.548 5.548 0 0057 59.375a5.52 5.52 0 001.675 3.958A5.52 5.52 0 0057 67.292a5.49 5.49 0 00.843 2.903c-1.894.882-3.218 2.79-3.218 5.013 0 .853.21 1.653.556 2.375H42.75c0-4.84-2.426-9.125-6.126-11.701 3.578-1.364 6.126-4.83 6.126-8.882 0-.874-.708-1.583-1.583-1.583H28.5V39.583h-3.167v15.834a4.755 4.755 0 00-4.75 4.75V95h3.167V60.167c0-.873.71-1.584 1.583-1.584h14.05a6.343 6.343 0 01-6.133 4.75H28.5a1.583 1.583 0 100 3.167c6.11 0 11.083 4.972 11.083 11.083v1.584c0 .874.709 1.583 1.584 1.583h9.264a5.478 5.478 0 00-.556 2.375 5.548 5.548 0 005.542 5.542V95h3.166v-6.333h7.125a5.548 5.548 0 005.542-5.542 5.48 5.48 0 00-.568-2.398c2.95-.12 5.318-2.54 5.318-5.519a5.487 5.487 0 00-.843-2.903c1.894-.882 3.218-2.79 3.218-5.013a5.52 5.52 0 00-1.676-3.959 5.519 5.519 0 001.676-3.958zM65.708 85.5H55.417a2.378 2.378 0 01-2.375-2.375 2.378 2.378 0 012.375-2.375h10.291a2.378 2.378 0 012.375 2.375 2.378 2.378 0 01-2.375 2.375zm4.75-7.917H60.167a2.378 2.378 0 01-2.375-2.375 2.378 2.378 0 012.375-2.375h10.291a2.378 2.378 0 012.375 2.375 2.378 2.378 0 01-2.375 2.375zm2.375-7.916H62.542a2.378 2.378 0 01-2.375-2.375 2.378 2.378 0 012.375-2.375h10.291a2.378 2.378 0 012.375 2.375 2.378 2.378 0 01-2.375 2.375zm0-7.917H62.542a2.378 2.378 0 01-2.375-2.375A2.378 2.378 0 0162.542 57h10.291a2.378 2.378 0 012.375 2.375 2.378 2.378 0 01-2.375 2.375zM23.745 20.154a1.582 1.582 0 00-.621-1.15l-1.649-1.249c-.394-1.996-2.146-3.505-4.24-3.505-2.365 0-4.293 1.922-4.324 4.296a9.191 9.191 0 01-3.557-1.436l-.552-.372a1.582 1.582 0 00-2.469 1.312v1.299c0 1.908.575 3.728 1.642 5.256l-1.184 1.199A1.582 1.582 0 007.917 28.5h7.672c3.06 0 5.59-2.332 5.93-5.326l1.773-1.794c.32-.324.486-.771.453-1.226zm-4.897 1.216a1.581 1.581 0 00-.457 1.114c0 1.57-1.258 2.85-2.802 2.85H11.56a1.586 1.586 0 00-.326-1.747 6.055 6.055 0 01-1.536-2.705 12.32 12.32 0 004.795.968c.876 0 1.584-.71 1.584-1.584v-1.662c0-.655.52-1.187 1.156-1.187.637 0 1.157.532 1.157 1.187 0 .496.232.963.626 1.262l.755.571-.924.933z" fill="#F8AF2A"/><path d="M52.25 26.917V23.75H47.5c-.875 0-1.583.709-1.583 1.583v4.75H42.75v3.167h3.167v6.333h3.166V33.25h3.167v-3.167h-3.167v-3.166h3.167z" fill="#F8AF2A"/><path d="M57 17.417H38c-2.62 0-4.75 2.13-4.75 4.75v19c0 2.619 2.13 4.75 4.75 4.75h19c2.62 0 4.75-2.131 4.75-4.75v-19c0-2.62-2.13-4.75-4.75-4.75zm1.583 23.75c0 .872-.71 1.583-1.583 1.583H38c-.874 0-1.583-.71-1.583-1.583v-19c0-.873.71-1.584 1.583-1.584h19c.874 0 1.583.71 1.583 1.584v19zM23.75 7.917h-19c-2.62 0-4.75 2.13-4.75 4.75v19c0 2.619 2.13 4.75 4.75 4.75h19c2.62 0 4.75-2.131 4.75-4.75v-19c0-2.62-2.13-4.75-4.75-4.75zm1.583 23.75c0 .872-.71 1.583-1.583 1.583h-19c-.874 0-1.583-.71-1.583-1.583v-19c0-.873.71-1.584 1.583-1.584h19c.874 0 1.583.71 1.583 1.584v19zM90.25 0h-19c-2.62 0-4.75 2.13-4.75 4.75v19c0 2.62 2.13 4.75 4.75 4.75h19c2.62 0 4.75-2.13 4.75-4.75v-19C95 2.13 92.87 0 90.25 0zm1.583 23.75c0 .873-.71 1.583-1.583 1.583h-19c-.874 0-1.583-.71-1.583-1.583v-7.917h3.326c.736 3.61 3.934 6.334 7.757 6.334 3.823 0 7.02-2.725 7.757-6.334h3.326v7.917zM76 14.25c0-2.62 2.13-4.75 4.75-4.75s4.75 2.13 4.75 4.75S83.37 19 80.75 19 76 16.87 76 14.25zm15.833-1.583h-3.326c-.736-3.61-3.934-6.334-7.757-6.334-3.823 0-7.02 2.725-7.757 6.334h-3.326V4.75c0-.873.71-1.583 1.583-1.583h19c.874 0 1.583.71 1.583 1.583v7.917zm-42.75 52.25h-3.166v3.166h3.166v-3.166z" fill="#F8AF2A"/></svg>