<svg width="95" height="95" fill="none" xmlns="http://www.w3.org/2000/svg"><g clip-path="url(#clip0)" fill="#F8AF2A"><path d="M68.926 9.014a1.392 1.392 0 00-1.756-.889l-.494.162v-.54a1.392 1.392 0 10-2.784 0v.54l-.494-.162a1.392 1.392 0 00-.867 2.645l.513.168-.322.449c-.666.924.005 2.205 1.128 2.205.81 0 1.126-.574 1.434-1.002l.304.423a1.391 1.391 0 102.26-1.627l-.324-.448.513-.168a1.392 1.392 0 00.889-1.756z"/><path fill-rule="evenodd" clip-rule="evenodd" d="M67.847 11.386a1.392 1.392 0 01-2.259 1.627l-.304-.423c-.03.041-.058.083-.088.126l-.034.047c-.277.395-.607.829-1.312.829-1.123 0-1.794-1.281-1.129-2.205l.323-.449-.513-.168a1.392 1.392 0 01.867-2.645l.494.162v-.54a1.391 1.391 0 112.784 0v.54l.494-.162a1.392 1.392 0 01.867 2.645l-.513.168.323.448zm0-.343l.163.227a1.592 1.592 0 01-2.584 1.86l-.14-.194c-.275.389-.665.856-1.436.856-1.285 0-2.052-1.464-1.29-2.522l.162-.227-.253-.083a1.592 1.592 0 01.992-3.025l.232.076v-.265a1.592 1.592 0 113.183 0v.265l.231-.076a1.592 1.592 0 01.993 3.025l-.254.083z"/><path d="M82.687 23.951a1.392 1.392 0 00-1.756-.889l-.494.162v-.54a1.392 1.392 0 10-2.784 0v.54l-.494-.162a1.392 1.392 0 00-.867 2.645l.513.168-.323.449a1.392 1.392 0 002.26 1.626l.303-.422c.293.406.612 1 1.435 1 1.12 0 1.794-1.278 1.128-2.204l-.323-.448.513-.169a1.392 1.392 0 00.889-1.756z"/><path fill-rule="evenodd" clip-rule="evenodd" d="M77.222 22.872l.231.076v-.264a1.591 1.591 0 113.184 0v.264l.231-.076a1.592 1.592 0 01.993 3.025l-.254.084.163.226c.763 1.06-.009 2.522-1.29 2.522-.775 0-1.17-.476-1.438-.855l-.138.193a1.592 1.592 0 01-2.222.362l.117-.163m2.123-.567l.123-.171c.03.041.06.084.09.129l.032.044c.266.383.602.828 1.313.828 1.12 0 1.794-1.28 1.128-2.205l-.323-.448.513-.169a1.392 1.392 0 00-.867-2.645l-.494.162v-.54a1.392 1.392 0 10-2.784 0v.54l-.494-.162a1.392 1.392 0 00-.867 2.645l.513.168-.323.449m.001-.344l-.253-.083a1.592 1.592 0 01.992-3.024"/><path d="M64.106 22.126a1.392 1.392 0 100-2.783 1.392 1.392 0 000 2.783z"/><path fill-rule="evenodd" clip-rule="evenodd" d="M65.698 20.735a1.592 1.592 0 11-3.183 0 1.592 1.592 0 013.183 0zm-.2 0a1.392 1.392 0 11-2.783 0 1.392 1.392 0 012.783 0z"/><path d="M86.372 44.654a1.392 1.392 0 100-2.783 1.392 1.392 0 000 2.783z"/><path fill-rule="evenodd" clip-rule="evenodd" d="M87.964 43.262a1.592 1.592 0 11-3.184 0 1.592 1.592 0 013.184 0zm-.2 0a1.392 1.392 0 11-2.784 0 1.392 1.392 0 012.784 0z"/><path d="M71.9 34.002a1.392 1.392 0 100-2.784 1.392 1.392 0 000 2.784z"/><path fill-rule="evenodd" clip-rule="evenodd" d="M73.49 32.61a1.592 1.592 0 11-3.182 0 1.592 1.592 0 013.183 0zm-.2 0a1.392 1.392 0 11-2.782 0 1.392 1.392 0 012.783 0z"/><path d="M86.93 15.818a1.392 1.392 0 100-2.783 1.392 1.392 0 000 2.783z"/><path fill-rule="evenodd" clip-rule="evenodd" d="M88.522 14.426a1.592 1.592 0 11-3.183 0 1.592 1.592 0 013.183 0zm-.2 0a1.392 1.392 0 11-2.783 0 1.392 1.392 0 012.783 0z"/><path d="M61.22 24.026a2.768 2.768 0 00-1.752-.987 1.396 1.396 0 00-1.577 1.178 1.39 1.39 0 001.177 1.578l-2.483 2.42a1.392 1.392 0 00-.4 1.231l.585 3.418h-.001c-4.089-2.15-3.37-2.137-7.428-.002h-.002l-.004.002.587-3.418c.078-.45-.073-.91-.4-1.232l-2.484-2.42 3.433-.498a1.395 1.395 0 001.047-.761l1.536-3.11.605 1.226c.235.48.714.778 1.248.778a1.395 1.395 0 001.25-2.01l-.607-1.226c-1.022-2.093-3.997-2.04-4.994 0l-1.21 2.453c-2.76.4-3.623.345-4.46 1.38a2.785 2.785 0 00-.63 1.776c-.011 1.443.832 1.976 2.8 3.895l-.463 2.698a2.758 2.758 0 00.802 2.464 2.786 2.786 0 001.944.792c.87 0 1.175-.26 3.713-1.596h.002l2.421 1.273c1.841.976 4.084-.379 4.079-2.455 0-.161-.013-.322-.041-.478l-.462-2.698 1.959-1.91a2.78 2.78 0 00.21-3.76z"/><path fill-rule="evenodd" clip-rule="evenodd" d="M59.468 23.04s1.027.09 1.752.986a2.78 2.78 0 01-.21 3.762l-1.96 1.909.463 2.698c.028.155.04.317.04.478.006 2.076-2.236 3.431-4.078 2.455l-2.421-1.273h-.002c-.44.231-.812.43-1.131.601-1.53.817-1.863.995-2.582.995-.71 0-1.405-.27-1.944-.792a2.758 2.758 0 01-.802-2.464l.462-2.698c-.307-.3-.586-.565-.84-.806-1.37-1.301-1.969-1.87-1.96-3.09 0-.654.22-1.268.631-1.775.706-.873 1.43-.97 3.296-1.22.346-.046.732-.097 1.165-.16l1.21-2.453c.996-2.04 3.97-2.093 4.992 0l.607 1.226a1.395 1.395 0 01-1.248 2.01 1.384 1.384 0 01-1.25-.777l-.604-1.227-1.536 3.11c-.203.41-.594.694-1.047.76l-3.433.5 2.485 2.42c.326.32.477.78.399 1.231l-.587 3.418.004-.002h.002l.217-.114c1.87-.99 2.675-1.489 3.481-1.492.81-.003 1.62.492 3.508 1.492l.222.116h.001l-.586-3.418c-.078-.45.073-.91.4-1.232l2.483-2.42a1.39 1.39 0 01-1.176-1.577 1.396 1.396 0 011.577-1.178zm-1.775 1.149a1.596 1.596 0 011.799-1.348h.01a1.942 1.942 0 01.179.03c.116.025.278.067.464.139a2.98 2.98 0 011.005 4.921l-1.884 1.836.444 2.592c.03.169.044.342.044.514m-4.372 2.632l-2.329-1.224c-.394.207-.734.389-1.03.547-.61.326-1.036.553-1.37.707-.524.243-.846.316-1.314.316-.76 0-1.507-.29-2.083-.849a2.96 2.96 0 01-.904-2.13s0 .001 0 0"/><path d="M93.609 48.753H75.087l.66-.644c1.86-1.813.832-4.974-1.737-5.346l-3.574-.52-1.599-3.239c-1.149-2.329-4.472-2.328-5.62 0l-1.6 3.239-3.573.52c-2.57.373-3.596 3.534-1.737 5.346l.66.644h-4.98a2.78 2.78 0 00-.798-2.252l-7.872-7.872a2.786 2.786 0 00-3.936 0l-4.843 4.844-5.335-5.334a5.05 5.05 0 00-4.928-1.321 5.05 5.05 0 00-3.608 3.608l-2.79 10.411a6.913 6.913 0 00-3.68 3.68l-10.411 2.79c-3.794 1.016-5.067 5.756-2.287 8.537l5.334 5.334-4.843 4.844a2.782 2.782 0 000 3.936l7.872 7.872a2.775 2.775 0 001.967.814c.713 0 1.426-.271 1.968-.814l36.294-36.294h42.126V84.47a1.398 1.398 0 01-1.392 1.392H43.882a1.398 1.398 0 01-1.391-1.391V66.722c0-.766-.623-1.392-1.392-1.392-.766 0-1.39.624-1.391 1.388v17.753c0 1.115.434 2.163 1.223 2.952a4.156 4.156 0 002.952 1.222h46.942A4.173 4.173 0 0095 84.471V50.144c0-.774-.633-1.391-1.391-1.391zm-70.254-7.607c.462-1.724 2.616-2.303 3.88-1.04l5.334 5.335-6.432 6.433 1.679-6.267a1.392 1.392 0 00-2.688-.72l-1.617 6.032a6.907 6.907 0 00-2.605-.632l2.449-9.14zm-3.932 12.088a4.155 4.155 0 014.211 1.143l-5.898 5.898c-2.358-2.222-1.384-6.145 1.687-7.041zM3.466 63.876a2.296 2.296 0 01-.6-2.24c.217-.81.83-1.424 1.64-1.64l9.14-2.45a6.9 6.9 0 00.633 2.606l-6.032 1.616a1.391 1.391 0 10.72 2.689l6.266-1.68c-2.32 2.32-4.517 4.519-6.433 6.433l-5.334-5.334zm8.363 21.986L3.957 77.99l5.828-5.827L35.52 46.424l5.828-5.828 7.873 7.871-37.393 37.394zm61.975-39.746L71.1 48.753H60.954c-2.908-2.835-2.887-2.711-2.794-2.997.094-.29-.044-.192 4.582-.864a1.39 1.39 0 001.047-.761c2.076-4.205 1.937-4.09 2.238-4.09.3 0 .162-.115 2.236 4.09.203.41.595.695 1.048.761l4.299.625a.35.35 0 01.194.599z"/><path fill-rule="evenodd" clip-rule="evenodd" d="M51.19 46.501a2.775 2.775 0 01.798 2.252h4.979l-.66-.644c-1.86-1.812-.833-4.973 1.737-5.346l3.574-.52 1.598-3.239c1.149-2.328 4.472-2.329 5.621 0l1.599 3.239 3.574.52c2.569.373 3.597 3.533 1.737 5.346l-.66.644h18.522c.758 0 1.391.617 1.391 1.391v34.327a4.173 4.173 0 01-4.175 4.174H43.882a4.156 4.156 0 01-2.951-1.222 4.147 4.147 0 01-1.223-2.953V66.72a1.394 1.394 0 011.391-1.389c.769 0 1.392.626 1.392 1.392V84.47c.002.764.625 1.39 1.392 1.391h46.942a1.398 1.398 0 001.392-1.391V51.535H50.09L13.797 87.83a2.774 2.774 0 01-1.968.814 2.775 2.775 0 01-1.967-.814L1.99 79.958a2.782 2.782 0 010-3.936l2.069-2.07 2.633-2.632.141-.142L1.5 65.844c-2.78-2.78-1.507-7.521 2.287-8.537l10.411-2.79a6.913 6.913 0 013.68-3.68l2.79-10.411a5.05 5.05 0 013.608-3.608 5.05 5.05 0 014.928 1.32l5.335 5.335 4.843-4.844a2.786 2.786 0 013.936 0l7.872 7.872zm-16.652-3.31l4.702-4.703a2.986 2.986 0 014.219 0l7.872 7.872c.602.603.892 1.402.87 2.193h4.274l-.308-.3c-1.978-1.929-.886-5.291 1.848-5.688l3.47-.505 1.552-3.144c1.222-2.477 4.757-2.478 5.98 0l1.552 3.144 3.47.505c2.733.396 3.826 3.759 1.847 5.687l-.308.3h18.03c.868 0 1.592.706 1.592 1.592v34.327a4.373 4.373 0 01-4.375 4.374H43.882a4.356 4.356 0 01-3.093-1.28 4.348 4.348 0 01-1.281-3.094V66.719a1.594 1.594 0 011.591-1.588c.88 0 1.592.715 1.592 1.592V84.47m1.192 1.192a1.199 1.199 0 01-1.192-1.192zM34.538 43.19l-5.193-5.193a5.25 5.25 0 00-5.122-1.373 5.25 5.25 0 00-3.75 3.75L17.71 50.692a7.111 7.111 0 00-3.657 3.657L3.734 57.114c-3.942 1.056-5.265 5.982-2.377 8.871l5.193 5.193-2.674 2.674-2.028 2.028a2.982 2.982 0 000 4.22l7.872 7.872a2.974 2.974 0 002.11.872c.763 0 1.527-.29 2.109-.872l36.234-36.236h41.844V84.47a1.198 1.198 0 01-1.192 1.192H43.883M27.816 45.607l-1.68 6.267 6.433-6.433-5.334-5.334c-1.264-1.264-3.418-.685-3.88 1.04l-2.45 9.14.205.011a6.907 6.907 0 012.401.621l1.617-6.032a1.391 1.391 0 112.688.72zm-2.882-.772a1.591 1.591 0 113.075.824l-1.486 5.546 5.763-5.764-5.193-5.193c-1.154-1.155-3.123-.626-3.545.95l-2.386 8.904a7.11 7.11 0 012.216.54l1.556-5.807zM8.967 64.457a1.392 1.392 0 01-.72-2.689l6.032-1.616a6.91 6.91 0 01-.633-2.606l-9.14 2.45c-.81.216-1.423.83-1.64 1.64-.217.81.007 1.647.6 2.24L8.8 69.21l.067-.066 4.03-4.03 2.053-2.053.283-.283-6.266 1.679zm5.597-1.293L9.019 64.65a1.592 1.592 0 01-.824-3.075L14 60.019a7.11 7.11 0 01-.54-2.216l-8.903 2.385c-.741.199-1.3.758-1.499 1.5-.199.74.006 1.504.549 2.046L8.8 68.928l3.943-3.943 1.821-1.82zM3.957 77.99l7.872 7.872 37.393-37.394-7.873-7.87-4.653 4.652-1.175 1.175L9.785 72.162 3.957 77.99zm6.028-5.745l25.677-25.678 1.176-1.176 4.51-4.51 7.591 7.587-37.11 37.111-7.59-7.589 5.346-5.345v.003l.318-.32.082-.083zm9.494-18.82c-2.862.836-3.81 4.433-1.744 6.568l5.617-5.617a3.954 3.954 0 00-3.873-.95zm4.155.952a4.155 4.155 0 00-4.211-1.143c-3.07.895-4.045 4.82-1.687 7.04l5.898-5.897zm34.716-8.56a1.927 1.927 0 01-.005.018l-.009.027a.15.15 0 00-.002.009c.014.032.066.107.241.288.195.202.51.505 1.01.989.371.358.846.816 1.45 1.405h9.983l2.647-2.58a.15.15 0 00-.084-.258l-4.298-.625a1.591 1.591 0 01-1.199-.87l.18-.09c.202.412.594.696 1.047.762l4.299.625a.35.35 0 01.194.599L71.1 48.753H60.954c-2.518-2.455-2.84-2.691-2.82-2.896.002-.032.014-.063.026-.101.012-.038.02-.069.036-.096.103-.181.522-.183 4.546-.768a1.39 1.39 0 001.047-.761c1.804-3.655 1.935-4.047 2.136-4.087.03-.006.062-.004.102-.004.039 0 .07-.002.101.004.2.04.332.432 2.135 4.087l-.179.088c-.452-.916-.798-1.626-1.067-2.176a62.852 62.852 0 00-.714-1.44 3.865 3.865 0 00-.152-.27.54.54 0 00-.07-.093h-.005a.74.74 0 00-.05 0 1.73 1.73 0 01-.054 0 .54.54 0 00-.07.094c-.038.06-.087.146-.152.268-.147.28-.365.726-.715 1.443-.269.55-.615 1.26-1.066 2.174a1.59 1.59 0 01-1.199.871c-1.028.15-1.82.26-2.43.347a61.81 61.81 0 00-1.554.228 3.928 3.928 0 00-.304.061.534.534 0 00-.115.04c0 .001 0 .003-.002.005l-.015.047z"/></g><defs><clipPath id="clip0"><path fill="#fff" d="M0 0h95v95H0z"/></clipPath></defs></svg>