<svg width="95" height="95" fill="none" xmlns="http://www.w3.org/2000/svg"><g clip-path="url(#clip0)" fill="#F8AF2A"><path d="M38.746 76.59c-13.95-3.703-23.695-16.382-23.695-30.834a31.87 31.87 0 014.137-15.709c1.524-.444 5.586-1.913 7.63-5.402 2.492-4.255.897-9.66.827-9.889a1.388 1.388 0 00-1.626-.953c-.233.051-5.728 1.304-8.22 5.559-2.026 3.457-1.352 7.674-.991 9.256a34.487 34.487 0 00-3.242 7.768c-.609-1.155-1.435-2.294-2.563-3.215-3.819-3.12-9.406-2.379-9.642-2.345-.717.1-1.237.736-1.192 1.46.014.237.403 5.86 4.222 8.98 2.552 2.084 5.893 2.445 7.9 2.445h.048a34.618 34.618 0 001.163 11.186c-.978-.6-2.093-1.091-3.328-1.332-4.84-.944-9.413 2.35-9.605 2.492a1.388 1.388 0 00-.361 1.85c.047.075 1.162 1.861 3.084 3.466a1.387 1.387 0 101.78-2.13 13.374 13.374 0 01-1.661-1.672c1.407-.749 3.847-1.747 6.232-1.282 2.384.465 4.271 2.306 5.293 3.529-1.277.68-3.404 1.564-5.569 1.374a1.404 1.404 0 00-1.503 1.262 1.401 1.401 0 001.262 1.504c.283.024.563.036.841.036 2.632 0 5.02-1.037 6.446-1.817a34.834 34.834 0 006.195 8.274c-1.304-.027-2.701.145-4.053.686-4.578 1.831-6.634 7.079-6.72 7.302a1.389 1.389 0 00.7 1.75c.156.074 2.876 1.342 6.103 1.342 1.23 0 2.536-.184 3.8-.69 3.082-1.233 5.02-4.013 5.983-5.767a34.499 34.499 0 009.613 4.2 1.401 1.401 0 001.71-1.036 1.401 1.401 0 00-.998-1.648zm-32.6-37.474C4.264 37.578 3.473 35.06 3.15 33.5c1.59.002 4.204.274 6.098 1.82 1.881 1.538 2.673 4.052 2.996 5.613-1.594-.006-4.216-.28-6.096-1.817zm14.048-18.351c1.228-2.096 3.59-3.267 5.081-3.828.242 1.577.375 4.209-.853 6.305s-3.59 3.267-5.081 3.827c-.241-1.576-.375-4.208.853-6.304zm1.212 57.499c-2.258.903-4.844.377-6.365-.096.77-1.39 2.274-3.546 4.545-4.454 2.258-.903 4.844-.378 6.365.095-.77 1.39-2.274 3.546-4.545 4.455z"/><path fill-rule="evenodd" clip-rule="evenodd" d="M26.019 13.803a1.388 1.388 0 011.627.953c.069.228 1.664 5.634-.829 9.889-2.043 3.489-6.105 4.958-7.63 5.402a31.869 31.869 0 00-4.136 15.71c0 14.45 9.744 27.13 23.695 30.833.712.19 1.16.93.998 1.648a1.401 1.401 0 01-1.71 1.035 34.501 34.501 0 01-9.613-4.199l-.097.175c-.995 1.759-2.905 4.4-5.887 5.592-1.263.506-2.568.69-3.799.69-3.227 0-5.947-1.268-6.102-1.342a1.388 1.388 0 01-.7-1.75c.085-.223 2.14-5.47 6.719-7.302 1.253-.502 2.545-.686 3.767-.689.096 0 .191 0 .286.003a34.835 34.835 0 01-6.195-8.274l-.176.095c-1.442.767-3.744 1.722-6.27 1.722-.278 0-.558-.012-.841-.036a1.402 1.402 0 01-1.262-1.504 1.404 1.404 0 011.503-1.262c2.066.18 4.097-.616 5.388-1.28a7.52 7.52 0 00.181-.094 14.072 14.072 0 00-.132-.156c-1.048-1.218-2.876-2.927-5.161-3.373-2.286-.445-4.622.453-6.051 1.188-.062.032-.123.063-.181.095l.132.156a13.22 13.22 0 001.529 1.515 1.388 1.388 0 11-1.78 2.13C1.37 59.768.255 57.983.208 57.907a1.388 1.388 0 01.36-1.85c.193-.141 4.766-3.436 9.606-2.492a9.932 9.932 0 013.081 1.184c.083.048.166.097.247.147l-.075-.278A34.27 34.27 0 0112.34 43.71h-.2c-2.02-.02-5.26-.413-7.748-2.445-3.82-3.12-4.208-8.743-4.222-8.98a1.388 1.388 0 011.192-1.46c.236-.034 5.823-.774 9.642 2.345.068.055.134.111.2.168.947.82 1.67 1.797 2.226 2.795.047.084.092.168.136.252l.08-.276a34.488 34.488 0 013.163-7.492c-.36-1.582-1.035-5.8.99-9.256 2.493-4.255 7.988-5.507 8.22-5.559zm-9.423 14.783c-.366-1.646-1.004-5.852 1.03-9.325 1.274-2.175 3.309-3.574 5.041-4.434 1.734-.861 3.184-1.191 3.309-1.22.81-.177 1.62.298 1.86 1.091m-11.24 13.888a34.686 34.686 0 00-3.089 7.28c-.591-1.025-1.365-2.023-2.377-2.85l-.127.155.127-.155c-1.952-1.594-4.347-2.196-6.27-2.399-1.924-.203-3.397-.008-3.527.01a1.588 1.588 0 00-1.364 1.67v.001c.008.128.11 1.61.693 3.457.583 1.845 1.65 4.071 3.602 5.665 2.538 2.073 5.827 2.47 7.864 2.49a34.467 34.467 0 001.056 10.568 10.047 10.047 0 00-2.972-1.11c-2.473-.482-4.868.12-6.66.85-1.792.732-2.997 1.602-3.1 1.678a1.588 1.588 0 00-.413 2.117c.051.083 1.18 1.89 3.126 3.515a1.588 1.588 0 002.236-.2m-1.675-3.694c1.42-.724 3.683-1.576 5.88-1.147l.037-.19-.038.19c2.197.428 3.974 2.067 5.017 3.27-1.28.653-3.248 1.41-5.236 1.237a1.604 1.604 0 00-1.72 1.443l.199.018-.2-.017a1.601 1.601 0 001.444 1.72c.29.025.575.037.86.037 2.572 0 4.909-.972 6.364-1.746a35.033 35.033 0 005.793 7.802c-1.183.022-2.43.215-3.645.701-2.339.936-4.025 2.74-5.134 4.325-1.11 1.587-1.652 2.971-1.697 3.091a1.588 1.588 0 00.8 2.002c.165.078 2.917 1.362 6.19 1.362 1.25 0 2.58-.187 3.873-.704 3.04-1.216 4.977-3.898 5.981-5.671a34.695 34.695 0 009.49 4.11 1.6 1.6 0 001.956-1.184 1.601 1.601 0 00-1.142-1.885c-13.863-3.68-23.545-16.28-23.545-30.64a31.67 31.67 0 014.07-15.54M3.725 57.632c.391.451.888.967 1.475 1.456.673.563.763 1.564.2 2.237m14.966-40.46c-1.13 1.93-1.076 4.346-.863 5.926 1.481-.586 3.616-1.72 4.747-3.651l.164.096-.164-.096c1.13-1.93 1.076-4.347.863-5.927-1.481.587-3.616 1.721-4.747 3.652zm4.718-3.855c.065-.026.13-.05.191-.073l.03.202c.22 1.592.294 4.093-.883 6.102-1.176 2.008-3.394 3.168-4.89 3.754l-.191.073-.03-.203c-.22-1.592-.294-4.093.883-6.101 1.177-2.009 3.394-3.168 4.89-3.754zM3.397 33.702c.35 1.555 1.142 3.842 2.876 5.26 1.732 1.414 4.128 1.734 5.722 1.768-.35-1.555-1.142-3.839-2.875-5.254-1.745-1.426-4.135-1.743-5.723-1.774zm-.205-.002c.348 1.568 1.15 3.942 2.955 5.416 1.802 1.472 4.285 1.786 5.892 1.815l.204.002a14.114 14.114 0 00-.043-.2c-.348-1.569-1.15-3.94-2.953-5.412-1.815-1.483-4.291-1.794-5.893-1.82l-.205-.001.043.2zm12.146 44.349c1.53.446 3.914.861 5.994.029 2.092-.837 3.527-2.775 4.322-4.15-1.53-.446-3.914-.86-5.994-.028-2.092.836-3.526 2.774-4.322 4.149zm-.101.178l-.196-.059.1-.178c.798-1.39 2.27-3.406 4.445-4.276 2.164-.866 4.629-.42 6.17.036l.195.06-.1.178c-.798 1.39-2.269 3.405-4.445 4.276-2.163.865-4.629.418-6.17-.036z"/><path d="M94.432 56.056c-.193-.14-4.766-3.435-9.605-2.491-1.236.24-2.35.731-3.329 1.331a34.61 34.61 0 001.227-9.14c0-.684-.024-1.366-.064-2.046h.048c1.228 0 2.957-.134 4.692-.714a1.388 1.388 0 10-.88-2.633c-1.37.459-2.768.567-3.764.57.323-1.561 1.115-4.075 2.996-5.612 1.882-1.537 4.504-1.812 6.098-1.817-.227 1.096-.685 2.661-1.591 4.031a1.388 1.388 0 102.315 1.531c2.005-3.03 2.248-6.629 2.257-6.78a1.388 1.388 0 00-1.193-1.46c-.236-.034-5.823-.774-9.642 2.345-1.127.921-1.954 2.06-2.562 3.215a34.487 34.487 0 00-3.243-7.768c.361-1.581 1.035-5.799-.99-9.256-2.493-4.255-7.988-5.507-8.22-5.559a1.388 1.388 0 00-1.627.953c-.07.228-1.664 5.634.828 9.889 2.044 3.489 6.105 4.958 7.63 5.403a31.868 31.868 0 014.136 15.709c0 14.451-9.744 27.13-23.695 30.834a1.401 1.401 0 00-.998 1.647c.171.757.96 1.234 1.71 1.035a34.497 34.497 0 009.613-4.199c.964 1.754 2.901 4.534 5.984 5.767 1.264.506 2.568.69 3.799.69 3.226 0 5.947-1.268 6.102-1.342.655-.311.96-1.074.7-1.75-.085-.223-2.14-5.47-6.719-7.302-1.352-.541-2.749-.713-4.053-.686a34.837 34.837 0 006.195-8.274c1.425.78 3.813 1.816 6.446 1.816.588 0 1.189-.051 1.793-.17 4.84-.943 7.841-5.714 7.966-5.916a1.388 1.388 0 00-.36-1.85zM75.415 73.715c2.257.903 3.767 3.067 4.542 4.46-1.516.474-4.092.998-6.363.09-2.258-.904-3.767-3.068-4.543-4.46 1.517-.475 4.093-.999 6.364-.09zm-4.837-50.472c-1.228-2.097-1.094-4.73-.853-6.305 1.493.561 3.854 1.732 5.082 3.828 1.228 2.096 1.094 4.729.853 6.304-1.493-.56-3.854-1.731-5.082-3.827zM86.295 61.1c-2.386.466-4.829-.534-6.235-1.283 1.017-1.222 2.897-3.059 5.298-3.527 2.387-.464 4.829.535 6.235 1.284-1.017 1.221-2.897 3.058-5.298 3.526z"/><path fill-rule="evenodd" clip-rule="evenodd" d="M86.458 40.174a1.588 1.588 0 011.007 3.012l-.062-.185.062.185c-1.687.563-3.364.712-4.593.723.034.614.053 1.23.053 1.847 0 2.995-.384 5.92-1.108 8.722a10.05 10.05 0 012.971-1.11c2.473-.482 4.869.12 6.66.85 1.792.732 2.998 1.601 3.102 1.677.67.49.849 1.412.412 2.117l-.17-.105.17.105c-.067.11-.859 1.368-2.245 2.719-1.385 1.35-3.38 2.807-5.852 3.29a9.562 9.562 0 01-1.832.173c-2.575 0-4.91-.972-6.365-1.746l.095-.176a16.48 16.48 0 01-.176-.095l-.095.176.176.095a35.038 35.038 0 01-5.793 7.802 11.877 11.877 0 00-.28-.002 35.28 35.28 0 01-.203.203c.095-.002.19-.003.286-.003l.197-.198c1.183.022 2.43.215 3.644.701 2.34.936 4.026 2.74 5.135 4.325 1.11 1.587 1.651 2.971 1.697 3.09v.001a1.588 1.588 0 01-.8 2.002l-.087-.18.086.18c-.164.078-2.917 1.362-6.188 1.362-1.25 0-2.58-.187-3.873-.704-3.04-1.216-4.978-3.898-5.982-5.671l.17-.107-.098-.175a37.13 37.13 0 01-.17.107l.098.175a34.694 34.694 0 01-9.49 4.11 1.601 1.601 0 01-1.956-1.184l.195-.044-.195.044a1.601 1.601 0 011.142-1.885c13.863-3.68 23.546-16.28 23.546-30.64a31.67 31.67 0 00-4.07-15.54c-1.59-.474-5.618-1.97-7.669-5.471-1.273-2.174-1.498-4.633-1.401-6.565.097-1.934.517-3.36.554-3.483l.192.058-.192-.058a1.588 1.588 0 011.862-1.09c.125.028 1.574.358 3.308 1.22 1.733.86 3.768 2.259 5.041 4.433 2.035 3.473 1.397 7.68 1.03 9.326l-.038-.068-.173.1.195.044c.005-.025.01-.05.017-.076a34.688 34.688 0 013.088 7.28l-.137.243.079.276c.044-.084.09-.168.136-.252-.025-.09-.051-.179-.078-.268.592-1.025 1.365-2.022 2.378-2.85 1.951-1.594 4.346-2.196 6.27-2.399 1.924-.203 3.397-.008 3.526.01l-.028.199M81.573 54.618a34.605 34.605 0 001.152-8.862c0-.617-.02-1.232-.053-1.846m-.011-.2h.2c1.217-.011 2.876-.158 4.54-.714a1.388 1.388 0 10-.88-2.633c-1.278.428-2.582.551-3.56.568l-.204.002.043-.2c.348-1.57 1.15-3.94 2.953-5.412 1.804-1.473 4.287-1.787 5.893-1.815l.205-.002-.043.2c-.24 1.081-.696 2.543-1.548 3.831a1.388 1.388 0 002.315 1.531c2.005-3.03 2.248-6.629 2.257-6.78m-3.23 1.421c-1.593.033-3.989.353-5.722 1.769-1.733 1.415-2.524 3.7-2.875 5.254.96-.02 2.22-.144 3.453-.556m-11.043 33.54l-.075.186c-2.092-.838-4.467-.424-5.991.023.8 1.378 2.24 3.323 4.32 4.155 2.091.837 4.467.424 5.99-.023-.799-1.378-2.24-3.324-4.319-4.156l.075-.185zm-6.168.03c1.536-.456 3.992-.9 6.168-.03 2.163.865 3.64 2.89 4.442 4.281l.1.178-.195.06c-1.536.456-3.992.901-6.168.03-2.163-.865-3.64-2.889-4.442-4.28-.035-.061-.069-.12-.1-.179l.195-.06zm1.504-50.603c1.13 1.93 3.264 3.065 4.747 3.651.213-1.579.267-3.995-.864-5.926l.165-.097-.165.097c-1.13-1.93-3.265-3.065-4.747-3.652-.213 1.58-.267 3.996.864 5.927zm-1.056-6c-.22 1.59-.294 4.092.883 6.1 1.177 2.01 3.394 3.168 4.89 3.755l.192.073.03-.203c.22-1.591.293-4.092-.883-6.101-1.177-2.009-3.394-3.168-4.89-3.754a13.31 13.31 0 00-.192-.073l-.03.202zm10.68 42.613c1.419.724 3.684 1.578 5.882 1.149 2.212-.431 3.983-2.066 5.022-3.268-1.42-.724-3.684-1.577-5.883-1.15-2.212.432-3.983 2.067-5.021 3.27zm-.133.157a13.3 13.3 0 01-.182-.095l.132-.157c1.043-1.216 2.865-2.921 5.166-3.37 2.287-.445 4.625.454 6.054 1.19.062.031.122.063.181.094l-.132.157c-1.043 1.216-2.865 2.92-5.165 3.37-2.288.445-4.626-.455-6.055-1.19z"/><path d="M60.791 59.06a5.917 5.917 0 00-5.91-5.91h-.03V34.405a1.388 1.388 0 00-2.776 0v20.133c0 .766.621 1.388 1.388 1.388h1.418a3.138 3.138 0 013.134 3.134 3.138 3.138 0 01-3.134 3.135H42.105a3.138 3.138 0 01-3.135-3.135 3.138 3.138 0 013.135-3.134h2.313c.767 0 1.388-.622 1.388-1.388V30.285a1.388 1.388 0 00-2.368-.982l-1.104 1.102a3.139 3.139 0 01-4.433-.004 3.138 3.138 0 01.004-4.433l8.821-8.805a3.126 3.126 0 013.415-.677 3.126 3.126 0 011.934 2.896v9.471a1.388 1.388 0 002.776 0v-9.471a5.893 5.893 0 00-3.646-5.46 5.894 5.894 0 00-6.44 1.277l-8.82 8.805a5.917 5.917 0 00-.009 8.358 5.921 5.921 0 007.095.969V53.15h-.926a5.917 5.917 0 00-5.91 5.91 5.917 5.917 0 005.91 5.91h12.776a5.917 5.917 0 005.91-5.91z"/><path fill-rule="evenodd" clip-rule="evenodd" d="M51.205 13.923a5.893 5.893 0 013.646 5.459v9.471a1.388 1.388 0 01-2.776 0v-9.471c0-1.272-.76-2.408-1.934-2.896a3.126 3.126 0 00-3.415.677l-8.821 8.805a3.138 3.138 0 00-.004 4.433 3.139 3.139 0 004.433.004l1.104-1.102a1.387 1.387 0 012.368.982v24.253c0 .766-.621 1.388-1.388 1.388h-2.313a3.138 3.138 0 00-3.135 3.134 3.138 3.138 0 003.135 3.135H54.88a3.138 3.138 0 003.134-3.135 3.138 3.138 0 00-3.134-3.134h-1.418a1.388 1.388 0 01-1.388-1.388V34.405a1.388 1.388 0 012.776 0V53.15h.03a5.916 5.916 0 015.91 5.91 5.917 5.917 0 01-5.91 5.91H42.105a5.917 5.917 0 01-5.91-5.91 5.917 5.917 0 015.91-5.91h.926V33.33a5.921 5.921 0 01-7.094-.969 5.917 5.917 0 01.007-8.357l8.821-8.805a5.894 5.894 0 016.44-1.276zm-8.374 19.74a6.121 6.121 0 01-7.036-1.16 6.117 6.117 0 01.008-8.64l8.821-8.806a6.095 6.095 0 016.657-1.32 6.093 6.093 0 013.77 5.645v9.471a1.588 1.588 0 01-3.176 0v-9.471c0-1.19-.71-2.255-1.81-2.71a2.926 2.926 0 00-3.198.633m-8.82 8.805l8.82-8.805zm0 0a2.938 2.938 0 00-.005 4.15 2.939 2.939 0 004.15.003m1.104-1.102l-1.104 1.102zm0 0a1.588 1.588 0 012.71 1.124v24.253c0 .877-.71 1.588-1.588 1.588h-2.313a2.938 2.938 0 00-2.935 2.934 2.938 2.938 0 002.935 2.935H54.88a2.938 2.938 0 002.934-2.935 2.938 2.938 0 00-2.934-2.934h-1.418a1.588 1.588 0 01-1.588-1.588V34.405a1.588 1.588 0 013.176 0v18.547a6.117 6.117 0 015.94 6.108c0 3.37-2.74 6.11-6.11 6.11H42.105a6.117 6.117 0 01-6.11-6.11c0-3.37 2.74-6.11 6.11-6.11h.726V33.663"/></g><defs><clipPath id="clip0"><path fill="#fff" d="M0 0h95v95H0z"/></clipPath></defs></svg>