<svg width="48" height="48" fill="none" xmlns="http://www.w3.org/2000/svg"><path fill-rule="evenodd" clip-rule="evenodd" d="M16.184 20l7.82 9.644L31.974 20h-15.79zM24 34c-1.012 0-1.98-.466-2.652-1.284L12.922 22.52c-1.008-1.222-1.208-2.956-.518-4.422.61-1.294 1.824-2.098 3.17-2.098h16.852c1.346 0 2.56.804 3.17 2.098.692 1.466.49 3.2-.516 4.42l-8.428 10.198C25.98 33.534 25.012 34 24 34z" fill="#F8AF2A"/><mask id="a" style="mask-type:alpha" maskUnits="userSpaceOnUse" x="11" y="16" width="26" height="18"><path fill-rule="evenodd" clip-rule="evenodd" d="M16.184 20l7.82 9.644L31.974 20h-15.79zM24 34c-1.012 0-1.98-.466-2.652-1.284L12.922 22.52c-1.008-1.222-1.208-2.956-.518-4.422.61-1.294 1.824-2.098 3.17-2.098h16.852c1.346 0 2.56.804 3.17 2.098.692 1.466.49 3.2-.516 4.42l-8.428 10.198C25.98 33.534 25.012 34 24 34z" fill="#fff"/></mask><g mask="url(#a)"><path d="M0 0h48v48H0V0z" fill="#F8AF2A"/></g></svg>