<svg width="24" height="24" fill="none" xmlns="http://www.w3.org/2000/svg"><path fill-rule="evenodd" clip-rule="evenodd" d="M12.707 7.293a.978.978 0 00-.322-.215.978.978 0 00-.38-.077H12c-.036 0-.066.015-.101.02-.092.01-.184.02-.271.054-.07.029-.126.075-.187.117-.042.03-.091.047-.13.085l-3 2.862a1.001 1.001 0 001.38 1.447l1.31-1.25V16a1 1 0 002 0v-5.585l1.293 1.293a1 1 0 001.415-1.415l-3-3zM12 20c-4.411 0-8-3.589-8-8s3.589-8 8-8 8 3.589 8 8-3.589 8-8 8zm0-18C6.486 2 2 6.486 2 12s4.486 10 10 10 10-4.486 10-10S17.514 2 12 2z" fill="#333"/><mask id="a" style="mask-type:alpha" maskUnits="userSpaceOnUse" x="2" y="2" width="20" height="20"><path fill-rule="evenodd" clip-rule="evenodd" d="M12.707 7.293a.978.978 0 00-.322-.215.978.978 0 00-.38-.077H12c-.036 0-.066.015-.101.02-.092.01-.184.02-.271.054-.07.029-.126.075-.187.117-.042.03-.091.047-.13.085l-3 2.862a1.001 1.001 0 001.38 1.447l1.31-1.25V16a1 1 0 002 0v-5.585l1.293 1.293a1 1 0 001.415-1.415l-3-3zM12 20c-4.411 0-8-3.589-8-8s3.589-8 8-8 8 3.589 8 8-3.589 8-8 8zm0-18C6.486 2 2 6.486 2 12s4.486 10 10 10 10-4.486 10-10S17.514 2 12 2z" fill="#fff"/></mask><g mask="url(#a)" fill="#333"><path d="M0 0h24v24H0V0z"/><path fill-rule="evenodd" clip-rule="evenodd" d="M23 1H1v22h22V1zM0 0v24h24V0H0z"/></g></svg>